<svg width="64" height="64" viewBox="0 0 64 64" fill="none" xmlns="http://www.w3.org/2000/svg">
<path d="M0 12C0 5.37258 5.37258 0 12 0H52C58.6274 0 64 5.37258 64 12V52C64 58.6274 58.6274 64 52 64H12C5.37258 64 0 58.6274 0 52V12Z" fill="black"/>
<g clip-path="url(#clip0_7189_44220)">
<path fill-rule="evenodd" clip-rule="evenodd" d="M19.2318 12.9408C22.3962 10.008 26.7865 8 31.6735 8H32.2817C37.1687 8 41.559 10.008 44.7233 12.9408C47.8654 15.853 49.9552 19.8322 49.9552 23.9098V36.6206C49.9552 37.8164 48.9858 38.7857 47.7901 38.7857C46.5943 38.7857 45.625 37.8164 45.625 36.6206V23.9098C45.625 21.2975 44.2482 18.4044 41.7798 16.1167C39.3338 13.8496 35.9699 12.3302 32.2817 12.3302H31.6735C27.9853 12.3302 24.6214 13.8496 22.1753 16.1167C19.707 18.4044 18.3302 21.2975 18.3302 23.9098V34.9421H25.2269C26.4226 34.9421 27.392 35.9114 27.392 37.1071C27.392 38.3029 26.4226 39.2722 25.2269 39.2722H16.1651C14.9693 39.2722 14 38.3029 14 37.1071V23.9098C14 19.8322 16.0898 15.853 19.2318 12.9408Z" fill="#43FF6B"/>
<path fill-rule="evenodd" clip-rule="evenodd" d="M41.8446 25.6275C42.6425 26.4749 42.6023 27.8085 41.755 28.6064L33.423 36.4518C32.5757 37.2497 31.242 37.2096 30.4442 36.3622C29.6464 35.5149 29.6865 34.1812 30.5338 33.3834L38.8658 25.5379C39.7131 24.7401 41.0468 24.7802 41.8446 25.6275Z" fill="#05F3FF"/>
<path fill-rule="evenodd" clip-rule="evenodd" d="M31.5526 15.7812C32.7165 15.7812 33.66 16.7247 33.66 17.8886V44.8914C33.66 46.0553 32.7165 46.9988 31.5526 46.9988C30.3888 46.9988 29.4453 46.0553 29.4453 44.8914V17.8886C29.4453 16.7247 30.3888 15.7812 31.5526 15.7812Z" fill="#05F3FF"/>
<path fill-rule="evenodd" clip-rule="evenodd" d="M31.5531 46.9988C30.2314 46.9988 29.1599 48.0703 29.1599 49.392C29.1599 50.7137 30.2314 51.7851 31.5531 51.7851C32.8748 51.7851 33.9463 50.7137 33.9463 49.392C33.9463 48.0703 32.8748 46.9988 31.5531 46.9988ZM24.9453 49.392C24.9453 45.7426 27.9037 42.7842 31.5531 42.7842C35.2025 42.7842 38.1609 45.7426 38.1609 49.392C38.1609 53.0414 35.2025 55.9998 31.5531 55.9998C27.9037 55.9998 24.9453 53.0414 24.9453 49.392Z" fill="#05F3FF"/>
</g>
<defs>
<clipPath id="clip0_7189_44220">
<rect width="36" height="48" fill="white" transform="translate(14 8)"/>
</clipPath>
</defs>
</svg>
